<svg width="58" height="59" xmlns="http://www.w3.org/2000/svg" xmlns:xlink="http://www.w3.org/1999/xlink" overflow="hidden"><defs><clipPath id="clip0"><path d="M685 26 743 26 743 85 685 85Z" fill-rule="evenodd" clip-rule="evenodd"/></clipPath></defs><g clip-path="url(#clip0)" transform="translate(-685 -26)"><path d="M713.937 27C697.945 27 685 39.7221 685 55.4376 685 71.1532 697.945 84 713.937 84 729.928 84 743 71.1532 743 55.4376 743 39.7221 729.928 27 713.937 27ZM724.724 45.9584C727.009 45.9584 728.786 47.8293 728.786 50.0744 728.786 52.3195 727.009 54.1904 724.724 54.1904 722.44 54.1904 720.536 52.3195 720.536 50.0744 720.536 47.8293 722.44 45.9584 724.724 45.9584ZM703.276 45.9584C705.56 45.9584 707.464 47.8293 707.464 50.0744 707.464 52.3195 705.56 54.1904 703.276 54.1904 700.991 54.1904 699.088 52.3195 699.088 50.0744 699.088 47.8293 700.991 45.9584 703.276 45.9584ZM729.674 65.4158C726.12 70.4048 720.155 73.523 713.937 73.523 707.718 73.523 701.88 70.4048 698.326 65.4158 697.565 64.2932 697.818 62.6718 698.961 61.9234 700.103 61.1751 701.753 61.4245 702.514 62.547 705.179 66.2888 709.368 68.5339 713.937 68.5339 718.505 68.5339 722.821 66.2888 725.486 62.547 726.247 61.4245 727.77 61.1751 728.912 61.9234 730.055 62.6718 730.435 64.2932 729.674 65.4158Z" fill="#4472C4" fill-rule="evenodd"/></g></svg>