<svg width="48" height="60" xmlns="http://www.w3.org/2000/svg" xmlns:xlink="http://www.w3.org/1999/xlink" overflow="hidden"><defs><clipPath id="clip0"><path d="M242 198 290 198 290 258 242 258Z" fill-rule="evenodd" clip-rule="evenodd"/></clipPath></defs><g clip-path="url(#clip0)" transform="translate(-242 -198)"><path d="M261.462 253.261 269.539 253.261C270.569 253.261 271.41 254.099 271.41 255.134 271.41 256.169 270.569 257 269.539 257L261.462 257C260.424 257 259.583 256.169 259.583 255.134 259.583 254.099 260.424 253.261 261.462 253.261ZM259.854 247.709 271.138 247.709C272.184 247.709 273.025 248.548 273.025 249.582 273.025 250.617 272.184 251.455 271.138 251.455L259.854 251.455C258.816 251.455 257.975 250.617 257.975 249.582 257.975 248.548 258.816 247.709 259.854 247.709ZM248.015 229.499C248.712 229.499 249.341 229.929 249.621 230.586 249.856 231.137 250.106 231.703 250.371 232.268 250.795 233.182 250.446 234.291 249.575 234.789L248.174 235.596C247.894 235.755 247.568 235.845 247.235 235.845 246.568 235.845 245.94 235.483 245.606 234.91L244.682 233.302C244.432 232.872 244.364 232.367 244.493 231.884 244.622 231.401 244.932 230.993 245.372 230.744L247.121 229.741C247.394 229.582 247.704 229.499 248.015 229.499ZM282.96 229.492C283.271 229.492 283.582 229.575 283.862 229.734L285.628 230.745C286.06 230.994 286.371 231.401 286.499 231.884 286.636 232.367 286.568 232.873 286.318 233.303L285.385 234.91C285.052 235.483 284.431 235.845 283.756 235.845 283.43 235.845 283.104 235.755 282.816 235.589L281.392 234.774C280.52 234.268 280.171 233.159 280.596 232.246 280.861 231.696 281.111 231.13 281.354 230.579 281.634 229.915 282.263 229.492 282.96 229.492ZM243.878 219.609 245.924 219.609C246.439 219.609 246.924 219.82 247.257 220.197 247.59 220.567 247.742 221.073 247.673 221.578 247.643 221.827 247.613 222.114 247.613 222.401 247.613 222.695 247.643 222.997 247.673 223.224 247.742 223.737 247.59 224.242 247.264 224.612 246.931 224.982 246.446 225.201 245.931 225.201L243.878 225.201C242.841 225.201 242 224.356 242 223.329L242 221.48C242 220.447 242.841 219.609 243.878 219.609ZM285.077 219.602 287.122 219.602C288.152 219.602 289 220.447 289 221.481L289 223.33C289 224.356 288.152 225.201 287.122 225.201L285.069 225.201C284.547 225.201 284.062 224.982 283.736 224.612 283.403 224.235 283.252 223.729 283.32 223.224 283.35 222.998 283.388 222.696 283.388 222.401 283.388 222.115 283.35 221.821 283.32 221.579 283.259 221.074 283.411 220.568 283.736 220.191 284.07 219.821 284.554 219.602 285.077 219.602ZM265.5 211.768C259.786 211.768 255.141 216.395 255.141 222.086 255.141 224.751 256.733 227.944 258.43 231.333 259.764 233.997 261.135 236.745 261.946 239.658 261.984 239.779 262.143 239.9 262.242 239.9L268.736 239.9C268.827 239.9 268.994 239.779 269.024 239.658 269.843 236.647 271.252 233.846 272.616 231.152L272.624 231.137C274.283 227.83 275.86 224.713 275.86 222.086 275.86 216.395 271.207 211.768 265.5 211.768ZM283.755 208.964C284.43 208.964 285.051 209.327 285.384 209.9L286.316 211.508C286.832 212.398 286.521 213.553 285.627 214.066L283.907 215.055C283.627 215.213 283.308 215.304 282.998 215.304 282.316 215.304 281.694 214.919 281.376 214.3 281.111 213.787 280.808 213.274 280.482 212.783 280.202 212.345 280.111 211.84 280.224 211.349 280.338 210.874 280.641 210.466 281.081 210.217L282.816 209.221C283.104 209.055 283.43 208.964 283.755 208.964ZM247.234 208.964C247.568 208.964 247.894 209.055 248.174 209.221L249.911 210.217C250.351 210.466 250.654 210.874 250.768 211.349 250.889 211.84 250.798 212.345 250.51 212.783 250.192 213.274 249.888 213.787 249.623 214.3 249.304 214.919 248.682 215.304 248 215.304 247.689 215.304 247.37 215.213 247.09 215.055L245.368 214.066C244.466 213.553 244.155 212.398 244.678 211.508L245.603 209.9C245.937 209.327 246.566 208.964 247.234 208.964ZM265.5 206.175C274.306 206.175 281.475 213.316 281.475 222.086 281.475 226.042 279.52 229.914 277.633 233.658 275.973 236.964 274.246 240.383 273.988 243.697 273.905 244.708 273.063 245.493 272.071 245.493L258.93 245.493C257.937 245.493 257.096 244.708 257.005 243.697 256.74 240.511 255.118 237.266 253.406 233.831 251.496 230.012 249.518 226.064 249.526 222.086 249.526 213.316 256.687 206.175 265.5 206.175ZM275.504 201.425C275.837 201.425 276.163 201.508 276.443 201.674L278.048 202.602C278.95 203.115 279.253 204.262 278.738 205.16L277.738 206.88C277.412 207.446 276.829 207.785 276.178 207.785 275.822 207.785 275.473 207.68 275.163 207.484 274.67 207.159 274.155 206.865 273.64 206.593 273.186 206.359 272.853 205.967 272.709 205.484 272.572 205.009 272.633 204.511 272.883 204.081L273.875 202.361C274.216 201.788 274.837 201.425 275.504 201.425ZM255.486 201.425C256.161 201.425 256.782 201.788 257.116 202.361L258.117 204.081C258.367 204.511 258.428 205.009 258.291 205.484 258.147 205.967 257.814 206.359 257.351 206.593 256.835 206.865 256.327 207.159 255.827 207.484 255.516 207.68 255.167 207.785 254.811 207.785 254.159 207.785 253.583 207.453 253.249 206.888L252.248 205.16C251.998 204.722 251.93 204.217 252.059 203.734 252.187 203.251 252.498 202.851 252.938 202.602L254.546 201.674C254.834 201.508 255.16 201.425 255.486 201.425ZM264.569 199 266.425 199C267.462 199 268.303 199.837 268.303 200.871L268.303 202.907C268.303 203.896 267.538 204.673 266.561 204.673 266.478 204.673 266.402 204.665 266.326 204.658 266.076 204.62 265.788 204.59 265.5 204.59 265.205 204.59 264.917 204.62 264.675 204.658 264.591 204.665 264.516 204.673 264.44 204.673 263.455 204.673 262.69 203.896 262.69 202.907L262.69 200.871C262.69 199.837 263.531 199 264.569 199Z" fill="#4472C4" fill-rule="evenodd"/></g></svg>