<svg width="52" height="51" xmlns="http://www.w3.org/2000/svg" xmlns:xlink="http://www.w3.org/1999/xlink" overflow="hidden"><defs><clipPath id="clip0"><path d="M238 292 290 292 290 343 238 343Z" fill-rule="evenodd" clip-rule="evenodd"/></clipPath></defs><g clip-path="url(#clip0)" transform="translate(-238 -292)"><path d="M273.526 331.445C272.464 331.445 271.6 332.318 271.6 333.402 271.6 334.485 272.464 335.366 273.526 335.366L281.369 335.366C282.431 335.366 283.288 334.485 283.288 333.402 283.288 332.318 282.431 331.445 281.369 331.445ZM273.526 325.79C272.464 325.79 271.6 326.664 271.6 327.747 271.6 328.83 272.464 329.712 273.526 329.712L281.369 329.712C282.431 329.712 283.288 328.83 283.288 327.747 283.288 326.664 282.431 325.79 281.369 325.79ZM247.765 325.786C247.273 325.786 246.781 325.977 246.404 326.358 245.657 327.127 245.657 328.367 246.404 329.136L247.817 330.578 246.404 332.02C245.657 332.782 245.657 334.029 246.404 334.791 247.158 335.56 248.374 335.56 249.121 334.791L250.534 333.349 251.947 334.791C252.702 335.56 253.917 335.56 254.671 334.791 255.418 334.029 255.418 332.782 254.671 332.02L253.258 330.578 254.671 329.136C255.418 328.367 255.418 327.127 254.671 326.358 253.917 325.596 252.702 325.596 251.947 326.358L250.534 327.799 249.121 326.358C248.747 325.977 248.256 325.786 247.765 325.786ZM266.562 319.463 288.356 319.463C288.707 319.463 289 319.755 289 320.113L289 337.114C289 340.363 286.415 343 283.229 343L266.562 343C266.21 343 265.925 342.701 265.925 342.343L265.925 320.113C265.925 319.755 266.21 319.463 266.562 319.463ZM239.644 319.463 261.431 319.463C261.79 319.463 262.075 319.755 262.075 320.113L262.075 342.343C262.075 342.701 261.79 343 261.431 343L244.771 343C241.585 343 239 340.363 239 337.114L239 320.113C239 319.755 239.286 319.463 239.644 319.463ZM273.526 302.457C272.464 302.457 271.6 303.339 271.6 304.422 271.6 305.505 272.464 306.379 273.526 306.379L281.369 306.379C282.431 306.379 283.288 305.505 283.288 304.422 283.288 303.339 282.431 302.457 281.369 302.457ZM250.534 298.463C249.472 298.463 248.615 299.337 248.615 300.42L248.615 302.46 246.616 302.46C245.554 302.46 244.69 303.342 244.69 304.425 244.69 305.508 245.554 306.383 246.616 306.383L248.615 306.383 248.615 308.422C248.615 309.506 249.472 310.387 250.534 310.387 251.596 310.387 252.46 309.506 252.46 308.422L252.46 306.383 254.459 306.383C255.521 306.383 256.378 305.508 256.378 304.425 256.378 303.342 255.521 302.46 254.459 302.46L252.46 302.46 252.46 300.42C252.46 299.337 251.596 298.463 250.534 298.463ZM266.562 292 283.229 292C286.415 292 289 294.637 289 297.886L289 314.879C289 315.245 288.707 315.537 288.356 315.537L266.562 315.537C266.21 315.537 265.925 315.245 265.925 314.879L265.925 292.657C265.925 292.291 266.21 292 266.562 292ZM244.771 292 261.431 292C261.79 292 262.075 292.291 262.075 292.658L262.075 314.885C262.075 315.251 261.79 315.543 261.431 315.543L239.644 315.543C239.286 315.543 239 315.251 239 314.885L239 297.888C239 294.637 241.585 292 244.771 292Z" fill="#4472C4" fill-rule="evenodd"/></g></svg>