<svg width="50" height="50" xmlns="http://www.w3.org/2000/svg" xmlns:xlink="http://www.w3.org/1999/xlink" overflow="hidden"><defs><clipPath id="clip0"><path d="M242 427 292 427 292 477 242 477Z" fill-rule="evenodd" clip-rule="evenodd"/></clipPath></defs><g clip-path="url(#clip0)" transform="translate(-242 -427)"><path d="M244.04 457.783 274.72 457.783C280.083 457.783 284.441 461.87 284.433 466.888 284.433 471.913 280.083 476 274.72 476 273.594 476 272.679 475.092 272.679 473.96 272.679 472.828 273.594 471.92 274.72 471.92 277.825 471.92 280.353 469.663 280.353 466.888 280.353 464.12 277.825 461.863 274.72 461.863L244.04 461.863C242.908 461.863 242 460.948 242 459.823 242 458.69 242.908 457.783 244.04 457.783ZM288.96 443.627C290.092 443.627 291 444.535 291 445.668 291 450.199 286.807 453.882 281.662 453.882L244.04 453.882C242.908 453.882 242 452.967 242 451.842 242 450.709 242.908 449.801 244.04 449.801L281.662 449.801C284.557 449.801 286.92 447.948 286.92 445.668 286.92 444.535 287.827 443.627 288.96 443.627ZM274.721 427C280.084 427 284.435 431.087 284.435 436.105 284.435 441.13 280.084 445.217 274.721 445.217L244.04 445.217C242.908 445.217 242 444.31 242 443.177 242 442.045 242.908 441.137 244.04 441.137L274.721 441.137C277.826 441.137 280.354 438.88 280.354 436.105 280.354 433.33 277.826 431.08 274.721 431.08 271.623 431.08 269.095 433.337 269.095 436.105 269.095 437.237 268.18 438.145 267.054 438.145 265.922 438.145 265.014 437.237 265.014 436.105 265.014 431.087 269.365 427 274.721 427Z" fill="#4472C4" fill-rule="evenodd"/></g></svg>