<svg width="43" height="56" xmlns="http://www.w3.org/2000/svg" xmlns:xlink="http://www.w3.org/1999/xlink" overflow="hidden"><defs><clipPath id="clip0"><path d="M242 514 285 514 285 570 242 570Z" fill-rule="evenodd" clip-rule="evenodd"/></clipPath></defs><g clip-path="url(#clip0)" transform="translate(-242 -514)"><path d="M270.417 540.956C270.992 541.092 271.521 541.452 271.873 541.988 276.35 548.91 271.755 556.294 268.694 559.159 267.549 559.991 265.854 559.511 265.396 559.03 264.565 558.078 264.565 556.654 265.506 555.694 265.744 555.454 271.517 549.844 267.982 544.484 267.27 543.412 267.634 541.979 268.694 541.268 269.224 540.907 269.843 540.819 270.417 540.956ZM263.508 519.925C257.854 526.958 247.604 541.145 247.604 548.419 247.604 557.717 254.666 565.342 263.508 565.342 272.224 565.342 279.413 557.717 279.413 548.419 279.413 541.154 269.163 526.958 263.508 519.925ZM263.457 514C264.119 514 264.797 514.268 265.272 514.804 267.163 517.069 284 537.217 284 548.419 284.017 560.342 274.827 570 263.508 570 252.19 570 243 560.342 243 548.419 243 537.208 259.854 517.069 261.737 514.804 262.148 514.268 262.794 514 263.457 514Z" fill="#4472C4" fill-rule="evenodd"/></g></svg>