<svg width="48" height="48" xmlns="http://www.w3.org/2000/svg" xmlns:xlink="http://www.w3.org/1999/xlink" overflow="hidden"><defs><clipPath id="clip0"><path d="M155 365 203 365 203 413 155 413Z" fill-rule="evenodd" clip-rule="evenodd"/></clipPath></defs><g clip-path="url(#clip0)" transform="translate(-155 -365)"><path d="M179.527 393.313 180.129 393.902 188.99 402.576C189.318 402.897 189.318 403.433 188.99 403.754 188.826 403.915 188.607 404.022 188.388 404.022 188.169 404.022 187.951 403.915 187.787 403.754L180.348 396.472 180.348 411.197C180.348 411.625 179.965 412 179.527 412 179.035 412 178.652 411.625 178.652 411.197L178.652 396.472 171.214 403.754C170.885 404.075 170.338 404.075 170.01 403.754 169.682 403.433 169.682 402.897 170.01 402.576L178.926 393.902ZM193.372 379.706C193.7 379.385 194.247 379.385 194.576 379.706 194.904 380.028 194.904 380.563 194.576 380.884L187.136 388.167 202.179 388.167C202.617 388.167 203 388.541 203 389.023 203 389.452 202.617 389.827 202.179 389.827L187.136 389.827 194.576 397.109C194.904 397.43 194.904 397.966 194.576 398.287 194.412 398.448 194.193 398.555 193.974 398.555 193.755 398.555 193.536 398.448 193.372 398.287L184.51 389.612 183.908 389.023 184.51 388.434ZM164.427 379.706C164.756 379.385 165.303 379.385 165.631 379.706L174.551 388.434 175.153 389.023 174.551 389.612 165.631 398.287C165.467 398.448 165.248 398.555 165.029 398.555 164.81 398.555 164.591 398.448 164.427 398.287 164.099 397.966 164.099 397.43 164.427 397.109L171.87 389.827 156.876 389.827C156.383 389.827 156 389.452 156 389.023 156 388.541 156.383 388.167 156.876 388.167L171.87 388.167 164.427 380.884C164.099 380.563 164.099 380.028 164.427 379.706ZM179.527 366C179.965 366 180.348 366.375 180.348 366.857L180.348 381.527 187.787 374.245C188.115 373.924 188.662 373.924 188.99 374.245 189.318 374.566 189.318 375.102 188.99 375.423L180.129 384.15 179.527 384.739 178.926 384.097 170.01 375.423C169.682 375.102 169.682 374.566 170.01 374.245 170.338 373.924 170.885 373.924 171.214 374.245L178.652 381.527 178.652 366.857C178.652 366.375 179.035 366 179.527 366Z" fill="#4472C4" fill-rule="evenodd"/></g></svg>