<svg width="48" height="48" xmlns="http://www.w3.org/2000/svg" xmlns:xlink="http://www.w3.org/1999/xlink" overflow="hidden"><defs><clipPath id="clip0"><path d="M155 37 203 37 203 85 155 85Z" fill-rule="evenodd" clip-rule="evenodd"/></clipPath></defs><g clip-path="url(#clip0)" transform="translate(-155 -37)"><path d="M179.669 75.7983C181.937 75.7983 183.775 77.6343 183.775 79.8992 183.775 82.164 181.937 84 179.669 84 177.401 84 175.563 82.164 175.563 79.8992 175.563 77.6343 177.401 75.7983 179.669 75.7983ZM193.387 70.7889C194.484 70.7889 195.512 71.2105 196.287 71.9847 197.061 72.7588 197.491 73.7937 197.491 74.8898 197.491 75.9858 197.061 77.013 196.287 77.7872 195.512 78.5613 194.484 78.9906 193.387 78.9906 192.291 78.9906 191.255 78.5613 190.481 77.7872 189.706 77.013 189.284 75.9858 189.284 74.8898 189.284 73.7937 189.706 72.7588 190.481 71.9847 191.255 71.2105 192.291 70.7889 193.387 70.7889ZM165.949 70.7889C167.053 70.7889 168.081 71.2105 168.855 71.9847 169.63 72.7665 170.059 73.7937 170.059 74.8898 170.059 75.9858 169.63 77.013 168.855 77.7872 168.081 78.5613 167.046 78.9906 165.949 78.9906 164.853 78.9906 163.825 78.5613 163.051 77.7872 162.276 77.013 161.847 75.9858 161.847 74.8898 161.847 73.7937 162.276 72.7665 163.051 71.9847 163.825 71.2105 164.86 70.7889 165.949 70.7889ZM198.899 57.0758C201.164 57.0758 203 58.9118 203 61.1766 203 63.4415 201.164 65.2775 198.899 65.2775 196.635 65.2775 194.799 63.4415 194.799 61.1766 194.799 58.9118 196.635 57.0758 198.899 57.0758ZM160.106 57.0758C162.374 57.0758 164.212 58.9118 164.212 61.1766 164.212 63.4415 162.374 65.2775 160.106 65.2775 157.838 65.2775 156 63.4415 156 61.1766 156 58.9118 157.838 57.0758 160.106 57.0758ZM193.387 43.3573C194.484 43.3573 195.512 43.7864 196.287 44.5604 197.061 45.3343 197.491 46.3688 197.491 47.4647 197.491 48.5605 197.061 49.5873 196.287 50.3613 195.512 51.1353 194.484 51.5644 193.387 51.5644 192.291 51.5644 191.255 51.1353 190.481 50.3613 189.706 49.5873 189.284 48.5605 189.284 47.4647 189.284 46.3612 189.706 45.3343 190.481 44.5604 191.255 43.7864 192.291 43.3573 193.387 43.3573ZM165.949 43.3573C167.053 43.3573 168.081 43.7864 168.855 44.5604 169.63 45.3343 170.059 46.3688 170.059 47.4647 170.059 48.5605 169.63 49.5873 168.855 50.3613 168.081 51.1353 167.046 51.5644 165.949 51.5644 164.86 51.5644 163.825 51.1353 163.051 50.3613 162.276 49.5873 161.847 48.5528 161.847 47.457 161.847 46.3612 162.276 45.3343 163.051 44.5604 163.825 43.7864 164.853 43.3573 165.949 43.3573ZM179.669 37C181.937 37 183.775 38.836 183.775 41.1008 183.775 43.3657 181.937 45.2017 179.669 45.2017 177.401 45.2017 175.563 43.3657 175.563 41.1008 175.563 38.836 177.401 37 179.669 37Z" fill="#4472C4" fill-rule="evenodd"/></g></svg>