<svg width="55" height="53" xmlns="http://www.w3.org/2000/svg" xmlns:xlink="http://www.w3.org/1999/xlink" overflow="hidden"><defs><clipPath id="clip0"><path d="M236 604 291 604 291 657 236 657Z" fill-rule="evenodd" clip-rule="evenodd"/></clipPath></defs><g clip-path="url(#clip0)" transform="translate(-236 -604)"><path d="M262.941 647.525 257.841 653.366 268.027 653.366ZM262.939 644.867C263.237 644.867 263.533 644.982 263.731 645.212L271.176 653.736C271.444 654.043 271.508 654.49 271.342 654.874 271.163 655.257 270.794 655.5 270.373 655.5L255.496 655.5C255.088 655.5 254.705 655.257 254.539 654.874 254.361 654.49 254.425 654.043 254.705 653.736L262.137 645.212C262.341 644.982 262.641 644.867 262.939 644.867ZM247.004 633.134C243.485 633.134 240.629 635.997 240.629 639.524 240.629 643.051 243.485 645.913 247.004 645.913 250.523 645.913 253.379 643.051 253.379 639.524 253.379 635.997 250.523 633.134 247.004 633.134ZM247.004 631C251.683 631 255.495 634.821 255.495 639.524 255.495 641.428 254.87 643.204 253.799 644.623L288.069 632.125C288.63 631.933 289.23 632.214 289.434 632.764 289.638 633.326 289.357 633.927 288.796 634.131L242.057 651.165C241.93 651.217 241.802 651.229 241.687 651.229 241.254 651.229 240.846 650.961 240.693 650.539 240.489 649.977 240.769 649.364 241.33 649.172L245.053 647.817C241.305 646.923 238.5 643.549 238.5 639.524 238.5 634.821 242.312 631 247.004 631ZM277.802 608.635C274.883 608.635 272.486 611.025 272.486 613.965 272.486 616.905 274.883 619.296 277.802 619.296 280.734 619.296 283.118 616.905 283.118 613.965 283.118 611.025 280.734 608.635 277.802 608.635ZM277.802 606.5C281.907 606.5 285.247 609.849 285.247 613.965 285.247 618.081 281.907 621.418 277.802 621.418 273.697 621.418 270.37 618.081 270.37 613.965 270.37 609.849 273.697 606.5 277.802 606.5Z" stroke="#4472C4" stroke-width="3" stroke-linejoin="round" stroke-miterlimit="10" fill="#4472C4" fill-rule="evenodd"/></g></svg>