<svg width="47" height="60" xmlns="http://www.w3.org/2000/svg" xmlns:xlink="http://www.w3.org/1999/xlink" overflow="hidden"><defs><clipPath id="clip0"><path d="M238 105 285 105 285 165 238 165Z" fill-rule="evenodd" clip-rule="evenodd"/></clipPath></defs><g clip-path="url(#clip0)" transform="translate(-238 -105)"><path d="M284 152.197 274.171 164 274.171 155.569C274.171 153.883 275.595 152.478 277.305 152.478ZM245.406 148.973 245.406 153.748 258.365 153.748 258.365 148.973ZM241.276 106 280.724 106C282.576 106 284 107.404 284 109.23L284 149.535 274.173 149.535C272.322 149.535 270.898 151.08 270.898 152.765L270.898 164 241.276 164C239.567 164 238 162.596 238 160.91L238 109.23C238 107.404 239.567 106 241.276 106Z" fill="#4472C4" fill-rule="evenodd"/></g></svg>