<svg id="图层_1" data-name="图层 1" xmlns="http://www.w3.org/2000/svg" viewBox="0 0 1063.65 999.07"><defs><style>.cls-1{fill:#084288;}.cls-2{fill:#3e78ba;}.cls-3{fill:#fefefe;}.cls-4{fill:#054688;}.cls-5{fill:#054687;}.cls-6{fill:#1b477b;}.cls-7{fill:#0a448b;}</style></defs><title>favicon</title><path class="cls-1" d="M-1348.87,1247.68v-41c1.51-6.69,1.15-13.55,1.37-20.3a457.24,457.24,0,0,1,11.68-90.33,69.7,69.7,0,0,0,1.76-17.33c-.68-38.28,1.08-76.55,1.24-114.83.08-19.08.66-38.23,1.87-57.31,1.59-25,3.58-50,5.07-75.09q1.41-23.37,2.94-46.75,2.52-39.28,6.58-78.46c1.7-16,2.88-32.11,4.39-48.15,1.89-20,3.2-40.07,4.64-60.12.7-9.61.43-19.27,1.08-28.91a82.41,82.41,0,0,1,3.7-21c4-11.83,7.45-23.81,10.83-35.83,2.56-9.09,5.51-18.11,8.37-27.11,6.23-19.58,21.6-29.65,40.32-35.27,19.34-5.8,39.34-8.34,59.28-11,14.31-1.93,28.57-4.39,43-5.16,10.29-.56,20.6-.45,30.87-1.23a3.47,3.47,0,0,0,1.89-.51h34c7.83,1.79,15.86,1.08,23.77,2,10.07,1.12,20.2,1.64,30.29,2.61,4.86.47,9.62-.4,14.42-.62,14.32-.63,28.58.74,42.86,1.58,13.12.76,26.24,1.68,39.24,3.47,24.36,3.35,48.83,3.35,73.26,2.59,17.32-.54,34.66,0,51.91-1,16.66-1,33.29-.69,49.92-.69,21.65,0,43.28-.9,64.91-1.36,22.11-.47,44.23-1.19,66.33-2,15.49-.55,31,.34,46.41-.94,16-1.33,31.91-.37,47.88-1.46,18.74-1.29,37.55.72,56.33,1.46,13.3.53,26.52,2.06,39.78,3,29.29,2.07,55.53,12.51,80.72,26.94,19.53,11.2,30.46,28.7,38.69,48.61a103.8,103.8,0,0,1,8.15,43.34c-.19,6.15-1.74,12.17-1.92,18.34-.51,16.53,3.41,32.42,7.3,48.23a150.55,150.55,0,0,1,2.38,60.37,154.08,154.08,0,0,0-1.06,36.31q1.47,18.62,2.38,37.32c1.22,25.91,2.39,51.82,3.25,77.74.19,5.83,0,11.67,0,17.5.89,42.87.22,85.75,1,128.62v206.29c-.52,20.94-.71,41.9-1.63,62.83s-2.39,41.8-3.94,62.67c-1.31,17.73-1.83,35.5-3.69,53.19-1.39,13.27-14.11,21.83-24.61,17.83-3.29-1.25-5.94-.23-8.83,1.63-10.28,6.66-21.63,11-33.36,14.35a100.35,100.35,0,0,0-19.81,8.07,145.53,145.53,0,0,1-61.35,17.37c-42.77,2.36-85.53,1.41-128.3,1.39-18.6,0-37.22-1.19-55.82-1.87-15.61-.57-31.23-1.14-46.83-1.93-12.14-.61-24.3-1.36-36.4-.73-27.43,1.43-54.88,1.32-82.31,2.14-46.12,1.38-92.23.83-138.33.39-18.46-.18-36.94-.12-55.4-.68-7-.21-13.13,3.28-20,3.64-14.31.76-28.56,1.53-42.49-2.82a37.52,37.52,0,0,1-9.07-4.13,16.21,16.21,0,0,0-7.51-2.51c-11.76-.92-23.56-1.43-35.33-2.06-33.32-1.78-66.26-5.66-98.16-16-16.31-5.3-32.81-9.92-49.46-14.06-14.19-3.52-26.26-10.7-37-20.77-16.43-15.46-27.27-34.72-38.32-53.9-3.25-5.62-6.44-11.29-10-16.71-9.43-14.43-14.82-30-14.73-47.38A3.54,3.54,0,0,0-1348.87,1247.68Z" transform="translate(1348.87 -431.94)"/><path class="cls-2" d="M-286.2,983.72l1,0v183.94c-.23.55-.52.58-.88.1l-.12-138.71Q-286.24,1006.42-286.2,983.72Z" transform="translate(1348.87 -431.94)"/><path class="cls-3" d="M-1152.94,1032.66c-.18-39.93,3-79.42,17.42-117.11a953.27,953.27,0,0,1,41.16-92.71c8.9-17.49,17.76-35,30.44-50.17a282.66,282.66,0,0,1,21-22.72c3.61-3.48,4.5-7.15,3.17-12.13-7.27-27.19-7.39-54.88-5.52-82.72a306.79,306.79,0,0,1,13.17-71.28c1.93-6.19,4.08-12.38,11.4-13.73,7.49-1.38,12.82,2.82,16.82,8.51a355.81,355.81,0,0,0,25.69,33.06c31.31,35.06,69.86,57,116,66.1,28.9,5.73,56.12,1.56,83.26-9.18,30.62-12.13,58.59-28.79,86.53-45.86s49.41-40.75,70-65.57a102.23,102.23,0,0,1,7.48-8.7c8-7.66,17.1-6,21.83,4s6.67,21.18,8.72,32.07c4.65,24.71,7.52,49.62,7.27,74.83-.15,15.42-2.47,30.45-8,44.85-1.85,4.77-1.16,8,3,11.15,15.32,11.77,26.69,27.35,39.34,41.7,36.39,41.27,59.38,89.43,74.7,142a400.87,400.87,0,0,1,15.69,109.59c.12,14.12,1.28,28.29-.76,42.39a12.46,12.46,0,0,0,2.25,9c3.21,4.76,3.42,9.92,2.07,15.29-.8,3.22-1.42,6.5-2.48,9.63-3.31,9.71-9.86,15.8-20.08,18-11.77,2.57-23.78,2.52-35.67,3.81-18,1.94-36.05,3.62-54.06,5.61a276.89,276.89,0,0,1-48.35.88c-12-.77-23.95-1.15-35.94-1.29-45.13-.52-90.22-2.45-135.3-4.51-44.75-2-89.52-3.27-134.27-5-48.94-1.87-97.89-2.31-146.85-2.89-17.08-.2-34.31.42-51.13-3.8a63,63,0,0,1-14.43-5.34,20,20,0,0,0-9-2.47c-5.86-.16-9.57-3.2-11.71-8.48a64.92,64.92,0,0,1-4.77-23.28C-1153.06,1048.32-1152.94,1040.49-1152.94,1032.66Z" transform="translate(1348.87 -431.94)"/><path class="cls-3" d="M-583.1,1294.21c-6.13,5.56-10.76,11.52-16.87,15.92-9,6.51-18.83,10.24-30.2,9.63a22.06,22.06,0,0,1-21-20.13c-1.45-14.8,2.87-28.58,7-42.42,5.23-17.4,12-34.12,22.22-49.23,5.11-7.55,11.16-14.1,20.82-15.81,10.2-1.81,20.55,6.11,20.22,15.42-.12,3.18-1.49,5.58-4.3,6.71s-6.22,1.59-8.43-.86c-3.45-3.85-5.19-1.61-7.27,1.22-7.88,10.76-11.8,23.3-16.17,35.64a226.58,226.58,0,0,0-9.85,40c-.73,4.57.77,5.82,5.14,4.38a45.15,45.15,0,0,0,18.23-11.8c6.51-6.68,12.93-13.44,19.45-20.11a33.54,33.54,0,0,1,5.23-4.6c6.84-4.58,13.17-2.86,16,4.9,4.91,13.68,5.43,28,4.39,42.32-.37,5.2-5,8.89-9.69,9.25-5.2.41-10.88-3.64-13-9.06C-582.61,1302.15-582,1298.41-583.1,1294.21Z" transform="translate(1348.87 -431.94)"/><path class="cls-3" d="M-815.13,1258c-11.42,6.29-18.75,14.58-19.89,27.39a82.58,82.58,0,0,1-4,18.91c-2.2,6.6-7.1,9.72-13.19,8.73s-9.55-5.38-9.9-12.37c-.31-6,1.45-11.46,3.64-16.87,3.66-9.08,6-18.22,2.83-28.07-1.25-3.83.88-6.82,4.26-8.65,3.82-2.07,8-2.36,11,1,3.27,3.63,5.62,2.77,8.66-.07a52.52,52.52,0,0,1,11-7.72c10.8-5.84,15.51-5,23.42,4.5a74.44,74.44,0,0,1,14-10.26c13.1-7,23.24-3.19,28.53,10.65,4.14,10.81,3.55,22.22,4.64,33.42.51,5.29,1,10.6,1.05,15.91,0,8-5.38,13.43-12.85,13.41-8.35,0-14-5.27-14-13.48-.1-12,0-24,0-36,0-1.57.89-3.64-.89-4.51-2.23-1.08-3.72.82-5,2.28-7.13,8-11.36,17.1-11.1,28,.12,4.84,0,9.64-2.09,14.16-2.63,5.72-8.23,9.12-13.5,8.15-6-1.11-9.84-6.24-10.59-12.78-.84-7.41,2.33-14,3.43-21A86.25,86.25,0,0,0-815.13,1258Z" transform="translate(1348.87 -431.94)"/><path class="cls-3" d="M-697.45,1222.59a74.06,74.06,0,0,1,20.63,3.06c9.14,2.82,15.1,11.2,15.79,20.84.72,9.84-2.73,18.59-6.29,27.33a181.7,181.7,0,0,1-12.61,24.8c-7.91,13.21-18.79,17.67-33.88,14.34-13.71-3-25.69-8.88-29.26-23.57-4.71-19.31-.18-37.48,13.89-51.3,6.25-6.14,13.16-13.73,23.3-14.87C-703.08,1222.91-700.26,1222.79-697.45,1222.59Z" transform="translate(1348.87 -431.94)"/><path class="cls-3" d="M-1005.4,1322.65a42.16,42.16,0,0,1-18.11-2.81c-11.88-4.63-17-13.77-17.37-25.92-.14-3.86-.44-7.12-4.42-9.16-3.22-1.65-3.14-5-2.42-7.94s2.75-5.88,6.11-5.65c4.4.32,5.59-2.18,7-5.44,4.56-10.52,10.86-19.74,20.49-26.41,7.37-5.09,15.43-7.08,24.11-5.18,11.25,2.47,16.7,12,13.59,23.11-3.36,12.1-11,20.73-22.26,26a114.22,114.22,0,0,1-14.45,5.24c-2.13.66-5-.08-4.77,3.52.22,3,1.49,5.36,4.7,6.29,7.09,2,14.1,1.58,21.14-.27,7.95-2.09,14.9-6.39,22.28-9.76,2.11-1,4.23-1.91,6.31-2.93a4.37,4.37,0,0,1,5.42,1.13c1.72,1.75,2.1,4.23.69,6-9.27,11.45-17.63,24-32.86,28.63A44.27,44.27,0,0,1-1005.4,1322.65Z" transform="translate(1348.87 -431.94)"/><path class="cls-3" d="M-1105,1246.29c5.84-3.1,10.22-6.73,15.88-8,9-2,15.22.8,19.16,9.15,3.6,7.63,5.06,15.82,5.74,24.08,1,11.77,1.94,23.57.43,35.39-.6,4.68-2.34,8.45-7.12,9.72s-9.29-1.15-11.82-6.17a32.72,32.72,0,0,1-3.19-14c-.36-13.31,1.52-26.62,0-39.92-.14-1.24.65-2.9-.74-3.64-1.73-.92-2.66.79-3.71,1.75-12,11.07-19.09,24.89-22.53,40.73a75.21,75.21,0,0,1-3.08,11c-2.28,5.94-7.44,8.56-13.13,7.13-4.87-1.23-8.06-6-7.74-11.94a45.11,45.11,0,0,1,2.65-11.6,213.08,213.08,0,0,0,10.72-76,39.74,39.74,0,0,1,.36-6c.46-4.32,3.1-6.62,7.26-6.78a7.29,7.29,0,0,1,7.93,6.16,148.28,148.28,0,0,1,2.91,27.72C-1105,1238.53-1105,1242-1105,1246.29Z" transform="translate(1348.87 -431.94)"/><path class="cls-3" d="M-529.16,1294.61c-.69-7,1.27-14.89,3.2-22.81.43-1.76,1.23-3.55,1.18-5.31-.26-9.9,6.82-15,13.35-20.2,6.85-5.5,15-5.81,23.24-4.46,18.42,3,29.33,18,26.32,36.33-2.87,17.41-9.84,32.66-23.92,44-8.88,7.13-18.74,9.23-29.27,4.21s-14-14.42-14.1-25.46C-529.17,1299.21-529.16,1297.55-529.16,1294.61Z" transform="translate(1348.87 -431.94)"/><path class="cls-3" d="M-1186.48,1201.52c10,.23,20,.1,29.83-1.75a5.77,5.77,0,0,1,6.62,3.31c1.32,2.55.49,4.8-1.37,6.8a21.82,21.82,0,0,1-8.44,6c-3.37,1.2-4.74,3.36-5.28,7-2.67,17.86-1.37,35.9-2.77,53.81-1.13,14.59-2.45,29.14-5,43.55-1.27,7.13-5.41,10.8-11.14,10.39s-9.44-4.79-10-11.68c-1-11.59,2-22.8,3.49-34.13,2.71-20.4,5.65-40.78,8.61-61.14.6-4.09-.89-5.29-4.82-5.07-6.67.39-13.27-.67-19.8-1.94-4.36-.85-6.63-3.57-6.34-8.13.28-4.36,2.79-6.81,7-7C-1199.46,1201.34-1193,1201.52-1186.48,1201.52Z" transform="translate(1348.87 -431.94)"/><path class="cls-3" d="M-917.58,1254.93c11.15-9.17,24.63-11,37.66-14.08,3-.69,6.51-1.36,8.32,2.43,1.91,4-.79,6.15-3.56,8.21-4.27,3.17-8.36,6.64-12.86,9.45-14.78,9.24-23.94,22.74-30,38.68-1.12,3-2.17,5.92-3.28,8.86-2.84,7.48-9,11.47-15.15,9.9-7.38-1.88-10.81-8.06-9.24-16.73,1.94-10.77,3.85-21.55,5.9-32.3a137.08,137.08,0,0,0,2.5-25.78c0-4.37.73-7.84,5.72-9.09s7.75,1.45,10.07,5.27C-918.76,1244.26-919.45,1249.67-917.58,1254.93Z" transform="translate(1348.87 -431.94)"/><path class="cls-3" d="M-421.49,1153.49c4.6,0,8.11,1.1,9.9,5.16,1.66,3.77-.12,6.67-2.54,9.46-9,10.4-18.49,20.45-25.05,32.79a7.87,7.87,0,0,1-10.64,3.75c-3.77-1.7-5.34-5.54-4-10.62,2.92-11.14,8.79-20.7,16.21-29.38,2.05-2.4,4.21-4.7,6.38-7A12.15,12.15,0,0,1-421.49,1153.49Z" transform="translate(1348.87 -431.94)"/><path class="cls-3" d="M-405.43,1222.29c-.16-3.63,1.18-6.06,4.21-7.56s5.93-1.6,8.31.77c2.63,2.62,5.69,3,9.11,3,4.8,0,9.64-.42,14.33,1.14,6.69,2.23,9.74,7.29,8.24,13.83-1.22,5.32-6.2,8.06-12.85,7.41-7.64-.75-15.1-2.15-22-5.52C-401.67,1232.7-405.7,1228.78-405.43,1222.29Z" transform="translate(1348.87 -431.94)"/><path class="cls-3" d="M-411.08,1211c-3.52,0-6.09-1.42-7.43-4.42s-1.32-6.25,1.34-8.71c8.91-8.25,19.95-12.28,31.44-15.07,3.8-.92,7.16,3.76,5,6.73-7.44,10.06-16.44,18.21-29.08,21.27A11.75,11.75,0,0,1-411.08,1211Z" transform="translate(1348.87 -431.94)"/><path class="cls-4" d="M-611.41,583.13c2.53,12.81,4,25,5.2,37.18,1.45,14.26,1.29,28.59,1.2,42.92-.09,13.21-3.87,25.49-8.38,37.66-5.54,14.93-3.87,19.77,7.91,30.51,47.6,43.4,82.36,95.2,102.4,156.73a394.56,394.56,0,0,1,19.93,126.34c-.09,11.17,0,22.32.92,33.46.38,4.71,1.81,9,5.76,11.64,2.43,1.65,2.74,3.43,2.24,5.86-.11.48-.24,1-.34,1.45-2.71,12.15-2.92,12.19-15.62,12.87-20.6,1.11-41.09,3.43-61.57,5.8a329.56,329.56,0,0,1-68.29.69c-4.47-.41-9-.49-13.47-.48-41.15.08-82.23-2.31-123.33-3.73-53.59-1.85-107.15-4.69-160.78-5.38-27.14-.35-54.26-2.17-81.42-1.71-32.8.55-65.6,1.45-98.41,2.3-7.91.21-15.47-1.61-23.1-3.22a3.89,3.89,0,0,1-3.3-3.24c-1.07-4.68-2.76-9.35-2.94-14.08-1.38-36.46-1.37-72.87,6.85-108.73,5-21.74,13.91-42.13,22.23-62.7,11-27.08,23.61-53.38,37-79.33,7.4-14.33,17.77-26.46,27.51-39.08,3.31-4.28,6-8.9,12.1-10.41a5.65,5.65,0,0,0,3.4-8.19c-5.28-10.12-4.9-21.24-6.28-32a288.16,288.16,0,0,1-1-60.81,302.46,302.46,0,0,1,9.33-54.92,279.68,279.68,0,0,0,25.22,33c33.92,37.95,76.28,60.79,126,70.2,31.88,6,62.45,1.71,92.68-10.26a478.14,478.14,0,0,0,127.91-75C-631.69,608.44-622.22,595.78-611.41,583.13Z" transform="translate(1348.87 -431.94)"/><path class="cls-5" d="M-706.9,1288.65c-7.12,0-12.15-5.06-12.2-12.17s2-13.74,4.27-20.31c.51-1.43,1.24-3,3.15-2.41,6.48,2.07,12.88-.38,19.32-.25,4.49.09,5,1.73,3.75,5.49-3.09,9-7.64,17.26-11.86,25.69A6.84,6.84,0,0,1-706.9,1288.65Z" transform="translate(1348.87 -431.94)"/><path class="cls-6" d="M-1013.42,1269.79c3.23-8.27,7.29-14.7,14.65-18.49,1.79-.92,4-1.76,5.52.07,1.34,1.64-.11,3.47-1,5C-998.44,1263.37-1004.84,1267.22-1013.42,1269.79Z" transform="translate(1348.87 -431.94)"/><path class="cls-7" d="M-507.19,1284.79c0-2,.34-4-.06-5.94-2.1-10.09,5.64-12.86,13.58-13.08,8.39-.24,11.2,3.35,9.32,11.39-2.39,10.26-7.23,19.14-15.56,25.87-4,3.2-5.44,2.56-6.39-2.41C-507.29,1295.38-507.2,1290.08-507.19,1284.79Z" transform="translate(1348.87 -431.94)"/><path class="cls-3" d="M-939,1017.28a101.68,101.68,0,0,1,3.57-16.33q3.23-11.48,6.67-22.9c2.24-7.4,7.22-9.3,14.23-5.6,13.06,6.87,25.28,15.23,35.18,26,29,31.56,85.1,37.69,125.23,13.77,15.82-9.43,29.26-21.92,43.84-32.94,10.5-7.95,20.55-16.28,28.91-26.66,6.55-8.13,16.32-7,21.33,2.13a296.81,296.81,0,0,1,15.41,32.86c2.18,5.45,2,10.77-2.05,15.43-4.19,4.88-9.46,6.15-15.72,4.83-8.27-1.74-15-6.18-21.17-11.56-3.26-2.86-5.58-3-8.94-.1-10.35,8.9-20.72,17.79-31.53,26.12-27.19,20.95-58,31.56-92.4,29.15-26.42-1.85-49.57-13-70.21-29.24-3.86-3-6.88-7.22-10-11.09-2.14-2.64-3.51-3.09-5.42.2-4.36,7.53-11.24,12.65-18,17.81a11.29,11.29,0,0,1-12.69,1C-936.5,1028.2-939,1023.49-939,1017.28Z" transform="translate(1348.87 -431.94)"/><path class="cls-3" d="M-946.32,877.93A63.88,63.88,0,0,1-940,848.45a18.81,18.81,0,0,1,23.62-9.29,9.71,9.71,0,0,1,6,5.69c5.91,17.39,7.4,34.59-2.27,51.38-4.94,8.57-12.74,8.66-20.9,7.47-6.49-.94-9.06-5.89-10.75-11.65A61.87,61.87,0,0,1-946.32,877.93Z" transform="translate(1348.87 -431.94)"/><path class="cls-3" d="M-653.1,847c-.55,8.76-1.56,19.48-5,29.8-2.71,8.11-8.18,11.78-16.1,11-6.66-.65-11-5.93-11.95-14.26-.92-8.06-3.66-15.78-4.11-24-.77-14,6.59-22.79,18-29.06,4.83-2.66,9.77-1.15,13.11,3.4C-655,829.6-653,836.6-653.1,847Z" transform="translate(1348.87 -431.94)"/><path class="cls-3" d="M-799.83,936.75a40.28,40.28,0,0,1-20.79-6.37c-7.85-5.07-7.64-16.78.22-22.42,10-7.16,26.83-6.4,36.25,1.64a14.78,14.78,0,0,1-4.2,24.88A36.2,36.2,0,0,1-799.83,936.75Z" transform="translate(1348.87 -431.94)"/></svg>